<svg width="28" height="28" viewBox="0 0 28 28" fill="none" xmlns="http://www.w3.org/2000/svg">
<path fill-rule="evenodd" clip-rule="evenodd" d="M19.8456 1.71446C18.2408 1.04482 16.5203 0.699951 14.7824 0.699951C10.7433 0.699951 7.11806 2.52597 4.73166 5.40424C4.04656 6.23055 3.4626 7.14453 2.99982 8.12813L6.67207 10.149L8.04551 7.98913C9.6589 6.09903 12.0766 4.89995 14.7824 4.89995C15.9644 4.89995 17.1353 5.13448 18.2282 5.59054C19.3211 6.04661 20.3152 6.7155 21.1533 7.55979C21.9914 8.40411 22.6571 9.4073 23.1115 10.5125C23.5659 11.6177 23.8 12.8028 23.8 14C23.8 15.1971 23.5659 16.3822 23.1115 17.4874C22.6571 18.5926 21.9914 19.5958 21.1533 20.4401C20.3152 21.2844 19.3211 21.9533 18.2282 22.4094C17.1353 22.8654 15.9644 23.1 14.7824 23.1C12.3957 23.1 10.1037 22.145 8.41138 20.4401L5.4306 23.399C7.90817 25.8949 11.2718 27.3 14.7824 27.3C16.5203 27.3 18.2408 26.9551 19.8456 26.2854C21.4504 25.6158 22.9075 24.6347 24.1341 23.399C25.3607 22.1633 26.3329 20.6971 26.996 19.0846C27.659 17.4721 28 15.7444 28 14C28 12.2555 27.659 10.5278 26.996 8.91531C26.3329 7.3028 25.3607 5.83664 24.1341 4.60092C22.9074 3.36517 21.4504 2.3841 19.8456 1.71446Z" fill="white"/>
<path d="M2.43624 15.97L9.402 11.8104C9.99281 11.4573 9.91527 10.5961 9.23977 10.2664L1.335 6.40829C0.660569 6.07911 -0.073947 6.54272 0.00599224 7.22446L0.944994 15.2421C0.96189 15.3963 1.02205 15.547 1.11936 15.6788C1.21667 15.8107 1.34768 15.9191 1.4991 15.993C1.65052 16.0669 1.81696 16.1037 1.98155 16.0996C2.14613 16.0956 2.30299 16.0509 2.43624 15.97Z" fill="white"/>
</svg>
