<svg width="39" height="39" viewBox="0 0 39 39" fill="none" xmlns="http://www.w3.org/2000/svg">
<path fill-rule="evenodd" clip-rule="evenodd" d="M32.8287 21.8847C33.4025 22.1895 33.8451 22.6708 34.1566 23.152C34.7632 24.1466 34.714 25.3658 34.1238 26.4406L32.9762 28.3656C32.3697 29.3922 31.2385 30.0339 30.0745 30.0339C29.5007 30.0339 28.8614 29.8735 28.3368 29.5526C27.9105 29.2799 27.4187 29.1837 26.8941 29.1837C25.2711 29.1837 23.9104 30.5151 23.8612 32.1033C23.8612 33.9481 22.353 35.3918 20.4677 35.3918H18.2381C16.3364 35.3918 14.8282 33.9481 14.8282 32.1033C14.7954 30.5151 13.4347 29.1837 11.8117 29.1837C11.2707 29.1837 10.7789 29.2799 10.3691 29.5526C9.84445 29.8735 9.18869 30.0339 8.6313 30.0339C7.45094 30.0339 6.31976 29.3922 5.71319 28.3656L4.58201 26.4406C3.97543 25.3978 3.94265 24.1466 4.54922 23.152C4.81152 22.6708 5.30334 22.1895 5.86073 21.8847C6.31976 21.6601 6.61485 21.2912 6.89355 20.8581C7.71324 19.4785 7.22143 17.6658 5.82794 16.8476C4.20495 15.9333 3.68034 13.896 4.6148 12.3078L5.71319 10.4149C6.66403 8.8268 8.69688 8.26535 10.3363 9.19576C11.7625 9.96576 13.615 9.45243 14.4511 8.08889C14.7134 7.63972 14.861 7.15847 14.8282 6.67722C14.7954 6.0516 14.9757 5.45806 15.2872 4.9768C15.8938 3.98222 16.9922 3.34056 18.1889 3.30847H20.5005C21.7136 3.30847 22.812 3.98222 23.4186 4.9768C23.7137 5.45806 23.9104 6.0516 23.8612 6.67722C23.8284 7.15847 23.976 7.63972 24.2383 8.08889C25.0744 9.45243 26.9269 9.96576 28.3696 9.19576C29.9925 8.26535 32.0418 8.8268 32.9762 10.4149L34.0746 12.3078C35.0255 13.896 34.5009 15.9333 32.8615 16.8476C31.468 17.6658 30.9762 19.4785 31.8123 20.8581C32.0746 21.2912 32.3697 21.6601 32.8287 21.8847ZM14.7134 19.3662C14.7134 21.8847 16.7954 23.8899 19.3692 23.8899C21.9431 23.8899 23.9759 21.8847 23.9759 19.3662C23.9759 16.8476 21.9431 14.8264 19.3692 14.8264C16.7954 14.8264 14.7134 16.8476 14.7134 19.3662Z" fill="white"/>
</svg>
