<?xml version="1.0" standalone="no"?>
<!DOCTYPE svg PUBLIC "-//W3C//DTD SVG 20010904//EN"
 "http://www.w3.org/TR/2001/REC-SVG-20010904/DTD/svg10.dtd">
<svg version="1.0" xmlns="http://www.w3.org/2000/svg"
 width="334.000000pt" height="334.000000pt" viewBox="0 0 334.000000 334.000000"
 preserveAspectRatio="xMidYMid meet">
<metadata>
Created by potrace 1.14, written by Peter Selinger 2001-2017
</metadata>
<g transform="translate(0.000000,334.000000) scale(0.100000,-0.100000)"
fill="#000000" stroke="none">
<path d="M1342 3320 c2 -7 -3 -15 -11 -18 -9 -3 -11 0 -6 9 5 8 -3 3 -17 -11
-13 -14 -24 -35 -23 -47 1 -12 -1 -20 -5 -18 -4 3 -7 -6 -7 -20 0 -16 4 -22
11 -18 6 4 5 0 -2 -9 -9 -11 -10 -18 -2 -23 5 -3 10 -15 10 -26 0 -11 4 -17
10 -14 6 3 7 -1 4 -9 -3 -9 -11 -13 -18 -10 -6 3 -2 -2 8 -10 11 -9 15 -16 8
-16 -6 0 -23 12 -37 26 -14 14 -34 26 -44 27 -11 1 -18 4 -15 8 2 4 -12 9 -30
11 -19 2 -33 1 -30 -3 2 -4 0 -10 -6 -14 -5 -3 -10 -1 -10 5 0 6 -10 2 -22 -9
-14 -13 -21 -32 -20 -53 1 -23 -2 -28 -8 -18 -14 22 -12 3 3 -22 12 -22 47
-61 47 -54 0 3 17 -13 38 -33 20 -21 43 -36 51 -33 10 3 12 0 8 -12 -4 -9 -2
-16 2 -16 5 0 12 6 14 13 3 7 6 4 6 -6 1 -11 -8 -21 -19 -24 -11 -3 -17 -10
-13 -17 4 -6 -1 -5 -10 3 -12 10 -17 10 -17 1 0 -6 -6 -10 -12 -7 -7 2 -21 -3
-31 -11 -22 -19 -50 -25 -40 -9 3 7 -2 5 -13 -4 -19 -16 -41 -26 -58 -27 -5 0
-13 -7 -18 -16 -5 -9 -15 -16 -23 -16 -23 0 -94 -43 -88 -53 3 -6 1 -7 -5 -3
-6 3 -17 0 -25 -8 -8 -8 -17 -12 -21 -9 -3 4 -6 1 -6 -6 0 -7 -4 -10 -9 -7 -5
3 -12 -1 -15 -10 -3 -9 -11 -12 -18 -8 -8 5 -9 2 -5 -10 5 -13 3 -17 -7 -13
-8 3 -22 -3 -32 -14 -10 -11 -24 -17 -32 -14 -12 4 -13 3 -2 -10 10 -12 10
-15 -4 -15 -9 0 -16 -5 -16 -11 0 -5 -5 -7 -12 -3 -8 5 -9 2 -5 -9 3 -9 3 -16
-1 -16 -21 3 -32 -3 -32 -17 0 -8 -4 -12 -10 -9 -5 3 -15 -5 -21 -19 -7 -14
-16 -23 -21 -20 -4 3 -12 -5 -17 -18 -6 -13 -10 -18 -11 -13 0 6 -6 -1 -13
-14 -6 -13 -15 -22 -18 -20 -12 8 -38 -23 -32 -38 4 -11 2 -14 -5 -9 -8 5 -12
0 -12 -13 0 -11 -9 -26 -20 -34 -11 -8 -17 -17 -12 -22 4 -4 -1 -5 -12 -1 -14
5 -17 3 -12 -10 4 -10 -1 -22 -11 -31 -10 -8 -12 -11 -4 -7 10 5 12 3 7 -5 -5
-7 -14 -10 -21 -7 -8 3 -11 -2 -8 -15 3 -10 1 -19 -5 -19 -5 0 -12 -9 -15 -21
-4 -13 -10 -18 -17 -14 -9 6 -9 2 -1 -13 9 -17 7 -23 -11 -36 -12 -9 -18 -16
-13 -16 6 0 6 -3 0 -8 -12 -8 -35 -57 -35 -73 0 -6 5 -7 12 -3 7 4 8 3 4 -5
-4 -6 -11 -9 -16 -6 -5 3 -11 1 -15 -5 -3 -5 -1 -10 6 -10 7 0 4 -7 -7 -15
-10 -8 -15 -15 -10 -15 5 0 1 -9 -8 -19 -12 -13 -14 -21 -6 -26 8 -5 6 -13 -6
-26 -14 -16 -15 -21 -3 -36 7 -10 9 -15 5 -11 -16 13 -35 -25 -24 -46 7 -13 7
-16 -1 -12 -7 5 -11 -4 -11 -24 0 -20 -4 -29 -11 -24 -8 5 -8 1 0 -14 7 -14 8
-23 1 -27 -6 -4 -8 -11 -4 -16 3 -6 -2 -17 -12 -25 -11 -9 -13 -12 -6 -9 10 5
13 0 11 -21 -2 -16 -8 -35 -14 -43 -7 -11 -7 -13 2 -7 8 4 13 1 13 -8 0 -9 -4
-16 -8 -16 -5 0 -9 -7 -9 -15 0 -8 5 -15 10 -15 5 0 4 -7 -3 -15 -10 -12 -10
-15 0 -15 10 0 10 -3 0 -15 -10 -12 -10 -15 1 -15 12 0 12 -2 0 -9 -9 -6 -10
-10 -2 -16 9 -5 9 -10 0 -21 -9 -11 -9 -14 1 -14 9 0 9 -4 -1 -17 -10 -11 -10
-14 -1 -9 16 9 16 -6 0 -23 -11 -11 -10 -12 1 -6 10 6 13 4 8 -7 -3 -9 0 -21
6 -27 8 -8 8 -11 -2 -11 -9 0 -10 -4 -4 -12 5 -7 8 -23 7 -35 0 -13 3 -23 9
-23 5 0 4 -7 -3 -15 -11 -14 -7 -19 12 -16 4 0 3 -11 -2 -24 -8 -20 -6 -27 6
-32 13 -5 13 -7 2 -14 -10 -7 -11 -9 0 -9 7 0 11 -4 8 -9 -3 -5 1 -14 9 -21 9
-8 12 -17 7 -24 -11 -14 11 -59 24 -48 4 4 2 -1 -5 -11 -12 -15 -11 -20 3 -35
9 -10 13 -22 9 -25 -3 -4 -2 -7 3 -7 5 0 10 -10 11 -22 1 -11 6 -24 11 -27 5
-3 15 -23 22 -43 8 -21 18 -34 24 -31 6 3 8 2 3 -2 -4 -5 1 -17 10 -28 13 -15
14 -18 3 -12 -12 7 -13 6 -3 -7 7 -8 9 -19 5 -23 -4 -5 0 -6 8 -3 11 4 16 -1
17 -14 1 -11 11 -28 23 -38 15 -13 17 -19 8 -23 -8 -3 -6 -6 5 -6 10 -1 16 -5
13 -10 -3 -5 1 -12 10 -15 9 -4 14 -9 11 -12 -3 -3 6 -17 21 -31 15 -14 18
-20 7 -13 -11 8 -1 -5 23 -27 29 -28 38 -43 30 -47 -7 -4 -3 -4 8 -2 15 2 21
-2 20 -12 0 -9 9 -21 22 -28 13 -6 23 -15 23 -20 0 -5 6 -8 14 -8 8 1 14 -1
13 -5 -2 -20 4 -31 17 -31 8 0 15 -7 15 -15 0 -9 6 -12 17 -8 11 4 14 3 9 -5
-4 -7 -2 -12 4 -12 6 0 8 -5 4 -12 -4 -7 -3 -8 5 -4 6 4 18 0 27 -8 9 -9 20
-14 25 -11 5 4 6 -1 3 -9 -4 -12 0 -16 15 -16 13 0 25 -9 31 -22 5 -13 9 -17
9 -10 1 7 6 10 11 7 6 -4 8 -11 4 -16 -3 -6 0 -9 7 -8 22 3 50 -12 42 -24 -4
-6 0 -8 10 -4 10 3 17 2 17 -3 0 -5 11 -12 25 -16 14 -3 23 -9 21 -13 -3 -4 5
-8 16 -8 12 -1 24 -6 27 -11 3 -6 15 -12 26 -14 11 -1 22 -5 25 -8 3 -3 16
-11 29 -18 19 -11 22 -11 16 0 -6 10 -5 11 6 1 7 -7 21 -13 31 -13 10 0 18 -5
18 -11 0 -5 5 -7 10 -4 5 3 10 1 10 -4 0 -6 5 -11 11 -11 5 0 7 4 4 10 -3 6 1
7 9 4 9 -3 16 -10 16 -16 0 -5 8 -8 18 -6 11 2 27 -4 37 -12 11 -9 16 -10 11
-2 -4 6 -2 12 3 12 6 0 11 -4 11 -10 0 -5 7 -7 15 -4 9 4 15 0 15 -7 0 -10 3
-10 8 -3 5 8 14 8 32 1 38 -15 91 -17 84 -3 -3 6 2 2 10 -8 9 -11 16 -15 16
-8 0 13 31 4 42 -12 5 -7 8 -7 8 2 0 6 7 12 15 12 8 0 15 -6 15 -12 0 -8 3 -9
8 -3 9 13 52 15 52 2 0 -5 7 -4 16 4 13 10 17 10 24 0 5 -10 9 -10 15 -2 5 9
11 9 23 -1 13 -10 14 -10 8 0 -6 10 1 12 27 9 20 -2 41 0 48 4 8 4 19 3 26 -3
9 -7 13 -7 13 1 0 7 5 9 10 6 6 -3 10 0 10 7 0 9 3 9 10 -2 9 -13 10 -13 10 0
0 13 1 13 10 0 8 -12 10 -12 10 -1 0 9 8 12 26 8 15 -2 28 0 30 8 3 6 15 11
27 10 12 -1 25 3 29 9 5 8 8 7 8 -1 0 -7 5 -13 11 -13 5 0 7 5 3 12 -5 8 0 9
14 6 14 -4 20 -2 15 5 -4 6 0 8 10 4 10 -4 17 -2 17 5 0 7 5 6 15 -2 12 -10
16 -9 21 4 3 9 17 16 29 16 13 0 25 5 27 10 2 6 13 12 26 13 12 0 22 5 22 9 0
4 7 4 17 1 11 -4 14 -3 9 5 -4 7 -3 12 3 12 5 0 17 3 27 7 13 5 15 3 9 -7 -5
-9 -4 -11 4 -6 6 4 9 11 6 16 -3 5 6 12 20 16 14 3 25 10 25 16 0 5 4 7 9 4 5
-3 14 1 21 9 7 8 16 13 20 10 4 -3 10 2 14 10 3 8 14 15 25 15 10 0 22 7 25
16 3 8 10 13 15 10 12 -8 43 23 36 35 -4 5 1 6 9 3 9 -3 16 -1 16 6 0 6 5 8
10 5 6 -3 10 -1 10 4 0 6 7 11 16 11 8 0 13 4 9 9 -3 6 5 15 17 22 30 15 78
66 70 74 -4 3 2 3 13 -1 11 -4 17 -4 13 0 -4 5 13 28 38 52 24 25 42 49 39 54
-4 6 1 7 11 3 12 -4 15 -3 10 5 -4 7 -2 12 3 12 6 0 11 6 11 13 0 6 14 23 30
37 17 14 32 34 34 43 1 10 7 22 13 25 6 4 25 35 43 69 17 35 35 63 40 63 4 0
7 11 6 25 -2 13 2 23 8 22 6 -1 10 6 9 16 -1 13 4 17 14 12 13 -4 13 -3 4 8
-9 11 -8 17 4 27 8 7 12 17 9 22 -4 6 -3 13 2 17 14 9 37 54 25 47 -7 -4 -8
-1 -5 8 3 9 11 16 18 17 6 0 2 4 -9 9 -19 8 -19 9 -1 9 14 1 17 7 14 26 -3 13
-2 22 3 20 13 -8 17 19 6 40 -9 17 -8 18 5 8 12 -11 14 -9 13 10 -1 12 3 25 9
29 7 5 6 8 -3 8 -11 0 -10 4 5 16 10 8 13 12 5 8 -11 -5 -13 -2 -8 17 4 13 7
34 7 47 0 13 4 20 10 17 7 -4 7 3 0 19 -5 14 -6 26 -1 26 4 0 7 11 6 25 -2 14
1 28 6 31 6 3 5 12 -2 21 -10 11 -10 16 0 23 10 6 10 9 1 15 -9 6 -9 10 1 16
8 5 9 9 4 9 -6 0 -11 9 -12 20 -1 12 3 18 9 14 7 -4 7 0 1 12 -5 11 -9 26 -8
34 0 8 -4 18 -10 22 -5 4 -1 8 10 8 15 0 17 2 6 9 -8 5 -12 18 -8 30 3 12 1
24 -4 27 -5 3 -7 10 -4 15 4 5 1 9 -6 9 -8 0 -8 4 1 15 9 11 9 15 1 15 -7 0
-10 4 -6 9 3 5 2 12 -3 15 -5 3 -7 19 -6 35 1 18 -3 31 -9 31 -7 0 -5 5 3 10
8 5 10 10 4 10 -7 0 -15 7 -18 16 -4 10 -2 13 7 8 9 -6 9 -5 0 8 -7 8 -10 18
-6 21 3 4 1 7 -5 7 -6 0 -9 7 -5 17 4 11 3 14 -5 9 -8 -5 -10 -2 -6 9 4 9 -2
26 -15 39 -14 15 -18 26 -12 30 5 4 8 13 5 21 -4 8 -10 13 -15 10 -4 -3 -6 4
-4 16 2 12 -4 33 -15 47 -11 13 -20 31 -20 38 0 8 -4 14 -10 14 -5 0 -10 11
-10 25 0 15 -6 25 -15 25 -9 0 -12 6 -8 17 4 10 2 14 -4 10 -6 -4 -14 0 -17 9
-4 10 -2 13 7 9 6 -4 4 0 -5 8 -10 8 -18 19 -18 26 0 6 -4 11 -10 11 -5 0 -10
5 -10 10 0 6 -13 24 -30 42 -16 17 -30 37 -30 44 0 8 -4 14 -10 14 -5 0 -10 7
-10 16 0 8 -4 13 -9 10 -5 -3 -12 1 -15 10 -3 8 -11 12 -17 8 -8 -4 -9 -3 -5
5 8 12 -18 44 -28 34 -3 -4 -6 -2 -6 4 0 6 -19 30 -42 54 -23 24 -35 35 -27
24 13 -18 13 -19 -3 -6 -10 7 -18 20 -18 27 0 8 -3 13 -7 13 -20 -3 -34 2 -28
11 3 6 -1 10 -10 10 -10 0 -13 5 -9 12 5 8 2 9 -9 5 -11 -4 -17 -1 -17 8 0 8
-9 15 -21 15 -11 0 -17 5 -14 10 3 6 -1 10 -9 10 -9 0 -16 3 -16 8 0 4 -14 13
-30 20 -17 8 -27 18 -23 25 4 6 0 8 -10 4 -9 -3 -22 0 -29 7 -7 7 -19 11 -26
8 -7 -2 -12 0 -11 5 3 20 -2 27 -11 13 -8 -13 -10 -12 -10 3 0 10 -4 15 -10
12 -5 -3 -10 -1 -10 6 0 8 -5 7 -17 -2 -11 -10 -14 -10 -9 -1 6 11 -5 17 -26
13 -5 0 -8 7 -8 17 0 14 -2 15 -10 2 -7 -12 -10 -12 -10 -1 0 7 -6 11 -15 7
-8 -3 -15 -1 -15 4 0 6 -7 10 -16 10 -8 0 -13 4 -10 8 3 5 -1 9 -9 9 -8 0 -12
-5 -8 -10 3 -5 -6 -2 -19 7 -14 9 -28 13 -31 9 -4 -3 -7 -1 -7 6 0 7 -4 10 -9
7 -5 -3 -25 1 -45 9 -23 10 -36 11 -36 5 0 -6 -5 -8 -10 -5 -6 4 -8 10 -6 14
3 4 -11 5 -30 3 -19 -2 -34 0 -34 5 0 5 -12 8 -27 8 -16 -1 -36 3 -45 7 -12 6
-18 5 -18 -2 0 -6 -5 -8 -10 -5 -6 4 -7 12 -3 18 4 8 1 7 -9 -1 -12 -9 -18
-10 -23 -2 -5 8 -11 8 -19 1 -9 -7 -17 -7 -26 2 -10 10 -11 9 -5 -3 8 -13 7
-13 -8 -1 -12 9 -17 10 -17 2 0 -7 -5 -9 -12 -5 -19 12 -48 12 -48 0 0 -6 -5
-4 -10 4 -9 13 -10 13 -10 0 0 -10 -3 -11 -8 -4 -4 6 -14 14 -22 17 -12 4 -11
6 3 6 10 1 16 5 13 10 -3 4 3 19 14 31 11 12 17 28 13 34 -5 7 -2 7 8 -1 11
-9 14 -7 15 14 1 13 10 31 20 38 11 8 15 15 10 15 -6 0 -1 7 10 16 10 8 13 12
5 8 -9 -4 -12 -2 -9 7 3 8 1 22 -4 31 -7 14 -5 16 9 11 15 -6 16 -5 3 9 -8 9
-18 14 -22 11 -5 -2 -8 2 -8 10 0 8 -7 18 -16 21 -10 4 -13 2 -9 -7 4 -6 -1
-3 -9 7 -12 15 -16 16 -16 5 0 -12 -2 -12 -10 1 -6 9 -10 11 -10 3 0 -7 -7
-10 -15 -7 -8 4 -15 1 -15 -5 0 -6 -6 -11 -13 -11 -17 0 -48 -37 -50 -60 -1
-10 -5 -16 -9 -14 -4 3 -8 -2 -8 -10 0 -8 -5 -18 -12 -22 -7 -4 -8 -3 -4 4 4
7 1 12 -6 12 -9 0 -15 14 -16 38 -2 20 -7 39 -12 40 -6 2 -7 8 -4 13 3 6 0 17
-8 26 -11 14 -11 16 0 9 11 -7 12 -4 4 10 -14 25 -49 54 -56 47 -3 -4 -6 2 -6
13 0 15 -2 16 -9 5 -8 -12 -12 -13 -26 -1 -13 11 -15 11 -13 0z m-802 -920 c0
-5 -5 -10 -11 -10 -5 0 -7 5 -4 10 3 6 8 10 11 10 2 0 4 -4 4 -10z"/>
<path d="M3025 2000 c3 -5 8 -10 11 -10 2 0 4 5 4 10 0 6 -5 10 -11 10 -5 0
-7 -4 -4 -10z"/>
<path d="M2815 620 c-3 -5 -1 -10 4 -10 6 0 11 5 11 10 0 6 -2 10 -4 10 -3 0
-8 -4 -11 -10z"/>
</g>
</svg>
